<svg xmlns="http://www.w3.org/2000/svg" xmlns:xlink="http://www.w3.org/1999/xlink" viewBox="0 0 121.98 108.14"><defs><style>.cls-1{fill:url(#linear-gradient);}</style><linearGradient id="linear-gradient" x1="33.96" y1="104.64" x2="85.33" y2="15.66" gradientUnits="userSpaceOnUse"><stop offset="0" stop-color="#4cf"/><stop offset="0.3" stop-color="#7494ea"/><stop offset="0.48" stop-color="#7494ea"/><stop offset="1" stop-color="#35ff69"/></linearGradient></defs><g id="Layer_2" data-name="Layer 2"><g id="Layer_1-2" data-name="Layer 1"><path class="cls-1" d="M93.27,0a28.58,28.58,0,0,1-6.88,18.64h-47A12.15,12.15,0,0,0,27.25,30.79v9.27l1.18.06h0A49.44,49.44,0,0,1,56.2,50.57,49.7,49.7,0,0,1,78.11,34.33,26.91,26.91,0,0,1,89.69,48.15,80.5,80.5,0,0,0,66.76,61.87,83,83,0,0,0,56,73a77.76,77.76,0,0,0-7.73-7.35A80,80,0,0,0,27.7,53.18L27.25,53V96a12.17,12.17,0,0,0,12.16,12.15H92.07A12.14,12.14,0,0,0,104.22,96V34.87a25,25,0,0,1,3.33-2.26A28.46,28.46,0,0,1,122,28.71,28.71,28.71,0,0,1,93.27,0ZM65.74,30.7h.5l.51,0Zm34.43,64.61A10.45,10.45,0,0,1,97.25,101a10.92,10.92,0,0,1-5.66,2.87,11.44,11.44,0,0,1-6-.47c1.81-.92,3.49-1.62,5-2.44a17.11,17.11,0,0,0,3.91-2.74,14.73,14.73,0,0,0,2.74-3.83c.79-1.5,1.41-3.2,2.23-5.06A10.77,10.77,0,0,1,100.17,95.31ZM91.78,57.43h0c0,.08,0,.15,0,.24A1.85,1.85,0,0,0,91.78,57.43Zm9-26A33.59,33.59,0,0,0,93.27,40a34,34,0,0,0-6.78-8A33.51,33.51,0,0,0,82,28.71,34,34,0,0,0,93.27,17.45a34,34,0,0,0,11.26,11.26A34,34,0,0,0,100.73,31.42ZM27.25,40.06V53c-.3-.13-.61-.26-.94-.38L24.63,52c-.53-.19-1.05-.38-1.57-.55s-1-.36-1.58-.52-1.06-.34-1.59-.5L18.29,50l-.91-.23c-.4-.12-.8-.22-1.21-.31a77.71,77.71,0,0,0-7.82-1.52c-.4-.06-.79-.11-1.19-.15l-.81-.11c-1-.12-2.08-.22-3.14-.3-.57,0-1.15-.1-1.73-.13L0,47.14A49.52,49.52,0,0,1,27.25,40.06Z"/></g></g></svg>